<svg version="1.0" xmlns="http://www.w3.org/2000/svg"
 width="979.000000pt" height="1221.000000pt" viewBox="0 0 979.000000 1221.000000"
 preserveAspectRatio="xMidYMid meet">

<g transform="translate(0.000000,1221.000000) scale(0.100000,-0.100000)"
fill="#000000" stroke="none">
<path d="M3640 9329 c-1520 -15 -2143 -41 -2365 -98 -22 -5 -53 -13 -70 -16
-16 -4 -39 -10 -50 -15 -11 -5 -47 -18 -79 -30 -102 -36 -190 -94 -281 -185
-101 -101 -205 -240 -205 -273 0 -8 -18 -53 -41 -100 -53 -111 -52 -109 -93
-227 -34 -98 -63 -196 -73 -245 -2 -14 -8 -34 -13 -45 -11 -29 -28 -94 -35
-140 -4 -22 -11 -60 -15 -85 -44 -240 -71 -482 -92 -815 -15 -231 -13 -1574 2
-1870 11 -202 24 -371 34 -435 3 -19 12 -91 21 -160 19 -158 46 -314 67 -395
20 -74 27 -100 39 -145 40 -150 122 -375 169 -466 15 -27 30 -63 34 -79 10
-38 56 -105 135 -194 145 -165 235 -227 416 -289 288 -98 584 -114 2585 -131
1017 -9 2751 -2 3665 14 491 9 924 38 1072 71 145 33 139 31 193 52 161 61
213 95 341 223 106 106 199 231 199 267 0 7 18 49 39 95 21 45 55 127 76 182
20 55 39 107 42 115 6 18 21 72 33 120 4 19 15 60 24 91 30 110 67 304 87 456
5 40 14 108 20 150 15 109 24 234 44 568 14 242 16 399 11 945 -7 701 -18 967
-55 1245 -5 39 -14 106 -20 150 -16 134 -52 338 -72 410 -5 22 -14 56 -19 75
-5 19 -13 51 -19 70 -5 19 -14 51 -19 70 -5 19 -22 69 -37 110 -15 41 -34 95
-42 119 -9 24 -33 77 -54 119 -22 41 -39 82 -39 92 0 22 -65 121 -120 185 -87
99 -194 193 -264 234 -77 44 -198 91 -233 91 -12 0 -24 4 -27 9 -3 5 -23 11
-43 15 -21 3 -65 10 -98 16 -248 42 -940 64 -2550 80 -566 6 -1120 10 -1230 9
-110 -1 -558 -6 -995 -10z m988 -2042 c510 -293 1173 -675 1474 -848 518 -297
546 -315 528 -330 -10 -9 -207 -134 -437 -279 -230 -145 -886 -559 -1458 -920
-572 -361 -1046 -660 -1054 -665 -12 -7 -13 24 -8 206 4 118 7 682 8 1254 1
1042 9 2115 16 2115 2 0 420 -240 931 -533z"/>
</g>
</svg>
