<?xml version="1.0" standalone="no"?>
<!DOCTYPE svg PUBLIC "-//W3C//DTD SVG 20010904//EN"
 "http://www.w3.org/TR/2001/REC-SVG-20010904/DTD/svg10.dtd">
<svg version="1.0" xmlns="http://www.w3.org/2000/svg"
 width="100px" height="100px" viewBox="0 0 1800.000000 1600.000000"
 preserveAspectRatio="xMidYMid meet">

<g transform="translate(0.000000,1600.000000) scale(0.100000,-0.100000)"
 stroke="none">
 
<path d="M8520 15969 c-270 -26 -328 -32 -455 -50 -975 -137 -1910 -517 -2720
-1107 -642 -467 -1222 -1107 -1615 -1782 -648 -1112 -906 -2375 -744 -3645 27
-216 83 -512 128 -680 14 -49 44 -162 66 -250 23 -88 45 -166 50 -174 6 -11
55 32 191 165 365 355 634 574 1019 829 694 460 1503 813 2345 1024 404 101
798 171 1210 216 571 61 1317 61 1890 0 1618 -174 3094 -780 4200 -1724 123
-105 227 -203 412 -385 78 -77 145 -137 148 -134 13 13 142 518 179 698 279
1372 51 2790 -645 4005 -261 456 -563 850 -949 1235 -241 242 -376 360 -635
554 -587 442 -1195 750 -1898 960 -439 131 -806 199 -1302 241 -193 16 -723
19 -875 4z" fill="red"/>

<path d="M8595 10014 c-1111 -64 -2031 -298 -2917 -740 -822 -410 -1496 -957
-2004 -1626 -57 -75 -104 -140 -104 -143 0 -10 116 -218 198 -355 417 -694
1002 -1321 1672 -1789 700 -490 1454 -813 2294 -982 l166 -34 0 -2172 0 -2173
1040 0 1040 0 0 2173 0 2172 168 34 c1244 249 2373 878 3226 1796 346 372 647
792 879 1226 l57 106 -97 129 c-627 836 -1547 1502 -2648 1916 -632 238 -1261
378 -1995 443 -163 15 -827 28 -975 19z" fill="#fff"/>
</g>
</svg>
