<?xml version="1.0" standalone="no"?>
<!DOCTYPE svg PUBLIC "-//W3C//DTD SVG 20010904//EN"
 "http://www.w3.org/TR/2001/REC-SVG-20010904/DTD/svg10.dtd">
<svg version="1.0" xmlns="http://www.w3.org/2000/svg"
 width="872.000000pt" height="981.000000pt" viewBox="0 0 872.000000 981.000000"
 preserveAspectRatio="xMidYMid meet">

<g transform="translate(0.000000,981.000000) scale(0.100000,-0.100000)"
fill="#000000" stroke="none">
<path d="M3280 9798 c-48 -13 -83 -49 -123 -127 -83 -159 -118 -347 -118 -639
0 -106 3 -217 6 -247 6 -47 5 -54 -12 -59 -71 -23 -491 192 -953 487 l-125 80
-90 1 c-115 1 -170 -18 -224 -80 -31 -35 -43 -61 -55 -112 -59 -264 -59 -528
1 -731 14 -47 27 -93 30 -101 3 -12 -19 -20 -99 -38 -269 -61 -589 -194 -733
-304 -172 -133 -221 -369 -94 -459 43 -30 138 -68 171 -69 44 0 40 -14 -15
-55 -95 -71 -178 -149 -272 -258 -305 -352 -498 -811 -565 -1345 -19 -149 10
-607 61 -972 41 -289 105 -612 170 -844 l30 -109 -20 -61 c-38 -118 -46 -177
-45 -346 1 -144 4 -177 27 -262 113 -425 435 -734 861 -827 l79 -17 37 -105
c113 -314 283 -620 506 -909 111 -143 403 -438 549 -554 647 -514 1449 -770
2272 -725 630 34 1184 219 1709 570 586 392 1063 1011 1290 1675 l28 82 85 16
c279 55 556 244 715 487 141 218 205 480 178 729 -13 117 -46 242 -87 335
l-25 58 34 106 c109 337 195 726 232 1046 12 99 18 227 18 375 0 192 -3 243
-23 345 -70 374 -200 750 -347 1005 -63 109 -185 282 -218 309 -14 12 -9 19
33 57 65 58 91 113 91 190 0 78 -31 143 -107 224 l-59 63 -109 23 c-61 13
-153 27 -206 30 l-96 7 -18 56 c-26 86 -127 290 -190 388 -68 105 -178 216
-258 262 -57 32 -61 33 -150 29 -103 -5 -150 -23 -203 -80 -35 -36 -64 -88
-64 -113 0 -8 -4 -15 -9 -15 -5 0 -62 25 -127 56 -467 219 -843 354 -1216 434
-573 124 -1085 320 -1423 545 -184 123 -298 232 -402 385 -64 94 -114 120
-225 119 -40 0 -89 -5 -108 -11z m-255 -5040 c-80 -97 -258 -277 -359 -363
-125 -107 -134 -120 -143 -225 -7 -84 9 -141 53 -190 64 -70 191 -93 514 -93
307 1 556 36 840 118 229 67 516 193 708 313 l82 51 0 -45 c0 -94 61 -162 171
-190 70 -18 134 -16 299 12 261 44 608 212 909 441 44 33 45 33 65 14 50 -46
86 -56 196 -55 117 0 215 26 342 90 37 19 70 34 73 34 3 0 5 -15 5 -34 0 -64
39 -261 75 -381 65 -217 133 -370 315 -715 100 -189 170 -479 170 -705 l0 -71
40 -24 c82 -50 77 -31 53 -181 -53 -339 -289 -819 -591 -1199 -98 -122 -360
-384 -482 -482 -442 -351 -935 -572 -1479 -663 -1181 -197 -2362 282 -3089
1255 -284 381 -513 911 -559 1296 l-16 131 34 49 c31 45 34 58 51 202 66 564
248 1030 532 1362 44 50 75 79 84 75 7 -3 68 -10 134 -16 273 -26 615 41 899
175 52 24 96 45 97 45 2 1 -8 -14 -23 -31z m5336 -1110 c21 -93 18 -315 -5
-403 -47 -181 -126 -323 -251 -451 -124 -127 -252 -206 -410 -255 -86 -27 -84
-28 -67 46 l16 65 36 0 c68 0 131 30 190 89 47 47 70 86 144 236 114 233 200
426 267 597 30 76 57 137 60 138 4 0 13 -28 20 -62z m-7926 -313 c32 -82 87
-211 122 -286 58 -122 70 -140 115 -174 28 -20 80 -51 117 -69 60 -28 75 -31
164 -31 78 0 98 -3 101 -15 15 -52 48 -270 41 -270 -13 0 -154 54 -195 75
-134 67 -257 170 -347 289 -61 81 -136 241 -162 346 -23 91 -41 312 -24 295 5
-5 36 -77 68 -160z"/>
<path d="M2596 3506 c-112 -47 -183 -125 -217 -238 -74 -243 101 -475 356
-472 149 1 263 72 327 202 31 62 33 74 33 167 0 89 -3 106 -28 157 -36 73
-102 139 -174 174 -47 23 -73 29 -147 31 -79 3 -99 0 -150 -21z"/>
<path d="M5668 3511 c-161 -65 -241 -181 -242 -351 -1 -75 3 -93 31 -152 39
-83 97 -142 177 -179 185 -87 400 -13 492 168 27 53 29 67 29 163 0 93 -3 112
-27 162 -34 72 -98 137 -173 173 -78 38 -213 46 -287 16z"/>
</g>
</svg>
